# MagicaVoxel @ Ephtracy

# group
o 

# material
mtllib Target.mtl
usemtl palette

# normals
vn -1 0 0
vn 1 0 0
vn 0 0 1
vn 0 0 -1
vn 0 -1 0
vn 0 1 0

# texcoords
vt 0.00195312 0.5
vt 0.251953 0.5
vt 0.697266 0.5
vt 0.919922 0.5

# verts
v -0.5 0.2 -7.45058e-09
v -0.5 0.2 -0.1
v -0.5 0.8 -7.45058e-09
v -0.5 0.8 -0.1
v -0.4 0.1 -7.45058e-09
v -0.4 0.1 -0.1
v -0.4 0.2 -7.45058e-09
v -0.4 0.2 -0.1
v -0.4 0.8 -7.45058e-09
v -0.4 0.8 -0.1
v -0.4 0.9 -7.45058e-09
v -0.4 0.9 -0.1
v -0.3 0 -7.45058e-09
v -0.3 0 -0.1
v -0.3 0.1 -7.45058e-09
v -0.3 0.1 -0.1
v -0.3 0.9 -7.45058e-09
v -0.3 0.9 -0.1
v -0.3 1 -7.45058e-09
v -0.3 1 -0.1
v 0.3 0 -7.45058e-09
v 0.3 0 -0.1
v 0.3 0.1 -7.45058e-09
v 0.3 0.1 -0.1
v 0.3 0.9 -7.45058e-09
v 0.3 0.9 -0.1
v 0.3 1 -7.45058e-09
v 0.3 1 -0.1
v 0.4 0.1 -7.45058e-09
v 0.4 0.1 -0.1
v 0.4 0.2 -7.45058e-09
v 0.4 0.2 -0.1
v 0.4 0.8 -7.45058e-09
v 0.4 0.8 -0.1
v 0.4 0.9 -7.45058e-09
v 0.4 0.9 -0.1
v 0.5 0.2 -7.45058e-09
v 0.5 0.2 -0.1
v 0.5 0.8 -7.45058e-09
v 0.5 0.8 -0.1
v -0.5 0.2 -7.45058e-09
v -0.5 0.8 -7.45058e-09
v -0.4 0.1 -7.45058e-09
v -0.4 0.2 -7.45058e-09
v -0.4 0.3 -7.45058e-09
v -0.4 0.7 -7.45058e-09
v -0.4 0.8 -7.45058e-09
v -0.4 0.9 -7.45058e-09
v -0.3 0 -7.45058e-09
v -0.3 0.1 -7.45058e-09
v -0.3 0.2 -7.45058e-09
v -0.3 0.3 -7.45058e-09
v -0.3 0.4 -7.45058e-09
v -0.3 0.6 -7.45058e-09
v -0.3 0.7 -7.45058e-09
v -0.3 0.8 -7.45058e-09
v -0.3 0.9 -7.45058e-09
v -0.3 1 -7.45058e-09
v -0.2 0.1 -7.45058e-09
v -0.2 0.2 -7.45058e-09
v -0.2 0.3 -7.45058e-09
v -0.2 0.4 -7.45058e-09
v -0.2 0.6 -7.45058e-09
v -0.2 0.7 -7.45058e-09
v -0.2 0.8 -7.45058e-09
v -0.2 0.9 -7.45058e-09
v -0.1 0.2 -7.45058e-09
v -0.1 0.3 -7.45058e-09
v -0.1 0.4 -7.45058e-09
v -0.1 0.6 -7.45058e-09
v -0.1 0.7 -7.45058e-09
v -0.1 0.8 -7.45058e-09
v 0.1 0.2 -7.45058e-09
v 0.1 0.3 -7.45058e-09
v 0.1 0.4 -7.45058e-09
v 0.1 0.6 -7.45058e-09
v 0.1 0.7 -7.45058e-09
v 0.1 0.8 -7.45058e-09
v 0.2 0.1 -7.45058e-09
v 0.2 0.2 -7.45058e-09
v 0.2 0.3 -7.45058e-09
v 0.2 0.4 -7.45058e-09
v 0.2 0.6 -7.45058e-09
v 0.2 0.7 -7.45058e-09
v 0.2 0.8 -7.45058e-09
v 0.2 0.9 -7.45058e-09
v 0.3 0 -7.45058e-09
v 0.3 0.1 -7.45058e-09
v 0.3 0.2 -7.45058e-09
v 0.3 0.3 -7.45058e-09
v 0.3 0.4 -7.45058e-09
v 0.3 0.6 -7.45058e-09
v 0.3 0.7 -7.45058e-09
v 0.3 0.8 -7.45058e-09
v 0.3 0.9 -7.45058e-09
v 0.3 1 -7.45058e-09
v 0.4 0.1 -7.45058e-09
v 0.4 0.2 -7.45058e-09
v 0.4 0.3 -7.45058e-09
v 0.4 0.7 -7.45058e-09
v 0.4 0.8 -7.45058e-09
v 0.4 0.9 -7.45058e-09
v 0.5 0.2 -7.45058e-09
v 0.5 0.8 -7.45058e-09
v -0.5 0.2 -0.1
v -0.5 0.8 -0.1
v -0.4 0.1 -0.1
v -0.4 0.2 -0.1
v -0.4 0.3 -0.1
v -0.4 0.7 -0.1
v -0.4 0.8 -0.1
v -0.4 0.9 -0.1
v -0.3 0 -0.1
v -0.3 0.1 -0.1
v -0.3 0.2 -0.1
v -0.3 0.3 -0.1
v -0.3 0.4 -0.1
v -0.3 0.6 -0.1
v -0.3 0.7 -0.1
v -0.3 0.8 -0.1
v -0.3 0.9 -0.1
v -0.3 1 -0.1
v -0.2 0.1 -0.1
v -0.2 0.2 -0.1
v -0.2 0.3 -0.1
v -0.2 0.4 -0.1
v -0.2 0.6 -0.1
v -0.2 0.7 -0.1
v -0.2 0.8 -0.1
v -0.2 0.9 -0.1
v -0.1 0.2 -0.1
v -0.1 0.3 -0.1
v -0.1 0.4 -0.1
v -0.1 0.6 -0.1
v -0.1 0.7 -0.1
v -0.1 0.8 -0.1
v 0.1 0.2 -0.1
v 0.1 0.3 -0.1
v 0.1 0.4 -0.1
v 0.1 0.6 -0.1
v 0.1 0.7 -0.1
v 0.1 0.8 -0.1
v 0.2 0.1 -0.1
v 0.2 0.2 -0.1
v 0.2 0.3 -0.1
v 0.2 0.4 -0.1
v 0.2 0.6 -0.1
v 0.2 0.7 -0.1
v 0.2 0.8 -0.1
v 0.2 0.9 -0.1
v 0.3 0 -0.1
v 0.3 0.1 -0.1
v 0.3 0.2 -0.1
v 0.3 0.3 -0.1
v 0.3 0.4 -0.1
v 0.3 0.6 -0.1
v 0.3 0.7 -0.1
v 0.3 0.8 -0.1
v 0.3 0.9 -0.1
v 0.3 1 -0.1
v 0.4 0.1 -0.1
v 0.4 0.2 -0.1
v 0.4 0.3 -0.1
v 0.4 0.7 -0.1
v 0.4 0.8 -0.1
v 0.4 0.9 -0.1
v 0.5 0.2 -0.1
v 0.5 0.8 -0.1
v -0.3 0 -7.45058e-09
v 0.3 0 -7.45058e-09
v -0.3 0 -0.1
v 0.3 0 -0.1
v -0.4 0.1 -7.45058e-09
v -0.3 0.1 -7.45058e-09
v 0.3 0.1 -7.45058e-09
v 0.4 0.1 -7.45058e-09
v -0.4 0.1 -0.1
v -0.3 0.1 -0.1
v 0.3 0.1 -0.1
v 0.4 0.1 -0.1
v -0.5 0.2 -7.45058e-09
v -0.4 0.2 -7.45058e-09
v 0.4 0.2 -7.45058e-09
v 0.5 0.2 -7.45058e-09
v -0.5 0.2 -0.1
v -0.4 0.2 -0.1
v 0.4 0.2 -0.1
v 0.5 0.2 -0.1
v -0.5 0.8 -7.45058e-09
v -0.4 0.8 -7.45058e-09
v 0.4 0.8 -7.45058e-09
v 0.5 0.8 -7.45058e-09
v -0.5 0.8 -0.1
v -0.4 0.8 -0.1
v 0.4 0.8 -0.1
v 0.5 0.8 -0.1
v -0.4 0.9 -7.45058e-09
v -0.3 0.9 -7.45058e-09
v 0.3 0.9 -7.45058e-09
v 0.4 0.9 -7.45058e-09
v -0.4 0.9 -0.1
v -0.3 0.9 -0.1
v 0.3 0.9 -0.1
v 0.4 0.9 -0.1
v -0.3 1 -7.45058e-09
v 0.3 1 -7.45058e-09
v -0.3 1 -0.1
v 0.3 1 -0.1

# faces
f 3/1/1 2/1/1 1/1/1
f 4/1/1 2/1/1 3/1/1
f 7/1/1 6/1/1 5/1/1
f 8/1/1 6/1/1 7/1/1
f 11/1/1 10/1/1 9/1/1
f 12/1/1 10/1/1 11/1/1
f 15/1/1 14/1/1 13/1/1
f 16/1/1 14/1/1 15/1/1
f 19/1/1 18/1/1 17/1/1
f 20/1/1 18/1/1 19/1/1
f 21/1/2 22/1/2 23/1/2
f 23/1/2 22/1/2 24/1/2
f 25/1/2 26/1/2 27/1/2
f 27/1/2 26/1/2 28/1/2
f 29/1/2 30/1/2 31/1/2
f 31/1/2 30/1/2 32/1/2
f 33/1/2 34/1/2 35/1/2
f 35/1/2 34/1/2 36/1/2
f 37/1/2 38/1/2 39/1/2
f 39/1/2 38/1/2 40/1/2
f 44/1/3 42/1/3 41/1/3
f 45/1/3 42/1/3 44/1/3
f 46/1/3 42/1/3 45/1/3
f 47/1/3 42/1/3 46/1/3
f 50/1/3 44/1/3 43/1/3
f 50/1/3 45/1/3 44/1/3
f 51/1/3 45/1/3 50/1/3
f 52/4/3 46/4/3 45/4/3
f 52/1/3 45/1/3 51/1/3
f 53/4/3 46/4/3 52/4/3
f 54/4/3 46/4/3 53/4/3
f 55/1/3 48/1/3 47/1/3
f 55/4/3 46/4/3 54/4/3
f 55/1/3 47/1/3 46/1/3
f 56/1/3 48/1/3 55/1/3
f 57/1/3 48/1/3 56/1/3
f 59/1/3 51/1/3 50/1/3
f 59/1/3 50/1/3 49/1/3
f 60/4/3 53/4/3 52/4/3
f 60/1/3 51/1/3 59/1/3
f 60/4/3 52/4/3 51/4/3
f 61/4/3 53/4/3 60/4/3
f 62/3/3 54/3/3 53/3/3
f 62/4/3 53/4/3 61/4/3
f 63/4/3 56/4/3 55/4/3
f 63/3/3 54/3/3 62/3/3
f 63/4/3 55/4/3 54/4/3
f 64/4/3 56/4/3 63/4/3
f 65/1/3 58/1/3 57/1/3
f 65/4/3 56/4/3 64/4/3
f 65/1/3 57/1/3 56/1/3
f 66/1/3 58/1/3 65/1/3
f 67/4/3 61/4/3 60/4/3
f 67/4/3 60/4/3 59/4/3
f 68/3/3 64/3/3 63/3/3
f 68/4/3 61/4/3 67/4/3
f 68/3/3 63/3/3 62/3/3
f 68/3/3 62/3/3 61/3/3
f 69/3/3 64/3/3 68/3/3
f 70/3/3 64/3/3 69/3/3
f 71/4/3 65/4/3 64/4/3
f 71/3/3 64/3/3 70/3/3
f 71/4/3 66/4/3 65/4/3
f 72/4/3 66/4/3 71/4/3
f 73/4/3 67/4/3 59/4/3
f 73/3/3 69/3/3 68/3/3
f 73/3/3 68/3/3 67/3/3
f 74/3/3 69/3/3 73/3/3
f 75/2/3 70/2/3 69/2/3
f 75/3/3 69/3/3 74/3/3
f 76/3/3 72/3/3 71/3/3
f 76/2/3 70/2/3 75/2/3
f 76/3/3 71/3/3 70/3/3
f 77/3/3 72/3/3 76/3/3
f 78/4/3 66/4/3 72/4/3
f 78/3/3 72/3/3 77/3/3
f 79/1/3 59/1/3 49/1/3
f 79/4/3 74/4/3 73/4/3
f 79/4/3 73/4/3 59/4/3
f 80/4/3 74/4/3 79/4/3
f 81/3/3 77/3/3 76/3/3
f 81/4/3 74/4/3 80/4/3
f 81/3/3 75/3/3 74/3/3
f 81/3/3 76/3/3 75/3/3
f 82/3/3 77/3/3 81/3/3
f 83/3/3 77/3/3 82/3/3
f 84/4/3 78/4/3 77/4/3
f 84/3/3 77/3/3 83/3/3
f 85/4/3 66/4/3 78/4/3
f 85/4/3 78/4/3 84/4/3
f 86/1/3 58/1/3 66/1/3
f 86/4/3 66/4/3 85/4/3
f 87/1/3 80/1/3 79/1/3
f 87/1/3 79/1/3 49/1/3
f 88/1/3 80/1/3 87/1/3
f 89/4/3 81/4/3 80/4/3
f 89/1/3 80/1/3 88/1/3
f 89/4/3 82/4/3 81/4/3
f 90/4/3 82/4/3 89/4/3
f 91/3/3 83/3/3 82/3/3
f 91/4/3 82/4/3 90/4/3
f 92/4/3 85/4/3 84/4/3
f 92/3/3 83/3/3 91/3/3
f 92/4/3 84/4/3 83/4/3
f 93/4/3 85/4/3 92/4/3
f 94/1/3 86/1/3 85/1/3
f 94/4/3 85/4/3 93/4/3
f 95/1/3 58/1/3 86/1/3
f 95/1/3 86/1/3 94/1/3
f 96/1/3 58/1/3 95/1/3
f 97/1/3 89/1/3 88/1/3
f 97/1/3 90/1/3 89/1/3
f 98/1/3 90/1/3 97/1/3
f 99/4/3 91/4/3 90/4/3
f 99/1/3 90/1/3 98/1/3
f 99/4/3 93/4/3 92/4/3
f 99/4/3 92/4/3 91/4/3
f 100/1/3 94/1/3 93/1/3
f 100/4/3 93/4/3 99/4/3
f 100/1/3 95/1/3 94/1/3
f 101/1/3 95/1/3 100/1/3
f 102/1/3 95/1/3 101/1/3
f 103/1/3 99/1/3 98/1/3
f 103/1/3 101/1/3 100/1/3
f 103/1/3 100/1/3 99/1/3
f 104/1/3 101/1/3 103/1/3
f 105/1/4 106/1/4 108/1/4
f 108/1/4 106/1/4 109/1/4
f 109/1/4 106/1/4 110/1/4
f 110/1/4 106/1/4 111/1/4
f 107/1/4 108/1/4 114/1/4
f 108/1/4 109/1/4 114/1/4
f 114/1/4 109/1/4 115/1/4
f 109/4/4 110/4/4 116/4/4
f 115/1/4 109/1/4 116/1/4
f 116/4/4 110/4/4 117/4/4
f 117/4/4 110/4/4 118/4/4
f 111/1/4 112/1/4 119/1/4
f 118/4/4 110/4/4 119/4/4
f 110/1/4 111/1/4 119/1/4
f 119/1/4 112/1/4 120/1/4
f 120/1/4 112/1/4 121/1/4
f 114/1/4 115/1/4 123/1/4
f 113/1/4 114/1/4 123/1/4
f 116/4/4 117/4/4 124/4/4
f 123/1/4 115/1/4 124/1/4
f 115/4/4 116/4/4 124/4/4
f 124/4/4 117/4/4 125/4/4
f 117/3/4 118/3/4 126/3/4
f 125/4/4 117/4/4 126/4/4
f 119/4/4 120/4/4 127/4/4
f 126/3/4 118/3/4 127/3/4
f 118/4/4 119/4/4 127/4/4
f 127/4/4 120/4/4 128/4/4
f 121/1/4 122/1/4 129/1/4
f 128/4/4 120/4/4 129/4/4
f 120/1/4 121/1/4 129/1/4
f 129/1/4 122/1/4 130/1/4
f 124/4/4 125/4/4 131/4/4
f 123/4/4 124/4/4 131/4/4
f 127/3/4 128/3/4 132/3/4
f 131/4/4 125/4/4 132/4/4
f 126/3/4 127/3/4 132/3/4
f 125/3/4 126/3/4 132/3/4
f 132/3/4 128/3/4 133/3/4
f 133/3/4 128/3/4 134/3/4
f 128/4/4 129/4/4 135/4/4
f 134/3/4 128/3/4 135/3/4
f 129/4/4 130/4/4 135/4/4
f 135/4/4 130/4/4 136/4/4
f 123/4/4 131/4/4 137/4/4
f 132/3/4 133/3/4 137/3/4
f 131/3/4 132/3/4 137/3/4
f 137/3/4 133/3/4 138/3/4
f 133/2/4 134/2/4 139/2/4
f 138/3/4 133/3/4 139/3/4
f 135/3/4 136/3/4 140/3/4
f 139/2/4 134/2/4 140/2/4
f 134/3/4 135/3/4 140/3/4
f 140/3/4 136/3/4 141/3/4
f 136/4/4 130/4/4 142/4/4
f 141/3/4 136/3/4 142/3/4
f 113/1/4 123/1/4 143/1/4
f 137/4/4 138/4/4 143/4/4
f 123/4/4 137/4/4 143/4/4
f 143/4/4 138/4/4 144/4/4
f 140/3/4 141/3/4 145/3/4
f 144/4/4 138/4/4 145/4/4
f 138/3/4 139/3/4 145/3/4
f 139/3/4 140/3/4 145/3/4
f 145/3/4 141/3/4 146/3/4
f 146/3/4 141/3/4 147/3/4
f 141/4/4 142/4/4 148/4/4
f 147/3/4 141/3/4 148/3/4
f 142/4/4 130/4/4 149/4/4
f 148/4/4 142/4/4 149/4/4
f 130/1/4 122/1/4 150/1/4
f 149/4/4 130/4/4 150/4/4
f 143/1/4 144/1/4 151/1/4
f 113/1/4 143/1/4 151/1/4
f 151/1/4 144/1/4 152/1/4
f 144/4/4 145/4/4 153/4/4
f 152/1/4 144/1/4 153/1/4
f 145/4/4 146/4/4 153/4/4
f 153/4/4 146/4/4 154/4/4
f 146/3/4 147/3/4 155/3/4
f 154/4/4 146/4/4 155/4/4
f 148/4/4 149/4/4 156/4/4
f 155/3/4 147/3/4 156/3/4
f 147/4/4 148/4/4 156/4/4
f 156/4/4 149/4/4 157/4/4
f 149/1/4 150/1/4 158/1/4
f 157/4/4 149/4/4 158/4/4
f 150/1/4 122/1/4 159/1/4
f 158/1/4 150/1/4 159/1/4
f 159/1/4 122/1/4 160/1/4
f 152/1/4 153/1/4 161/1/4
f 153/1/4 154/1/4 161/1/4
f 161/1/4 154/1/4 162/1/4
f 154/4/4 155/4/4 163/4/4
f 162/1/4 154/1/4 163/1/4
f 156/4/4 157/4/4 163/4/4
f 155/4/4 156/4/4 163/4/4
f 157/1/4 158/1/4 164/1/4
f 163/4/4 157/4/4 164/4/4
f 158/1/4 159/1/4 164/1/4
f 164/1/4 159/1/4 165/1/4
f 165/1/4 159/1/4 166/1/4
f 162/1/4 163/1/4 167/1/4
f 164/1/4 165/1/4 167/1/4
f 163/1/4 164/1/4 167/1/4
f 167/1/4 165/1/4 168/1/4
f 171/1/5 170/1/5 169/1/5
f 172/1/5 170/1/5 171/1/5
f 177/1/5 174/1/5 173/1/5
f 178/1/5 174/1/5 177/1/5
f 179/1/5 176/1/5 175/1/5
f 180/1/5 176/1/5 179/1/5
f 185/1/5 182/1/5 181/1/5
f 186/1/5 182/1/5 185/1/5
f 187/1/5 184/1/5 183/1/5
f 188/1/5 184/1/5 187/1/5
f 189/1/6 190/1/6 193/1/6
f 193/1/6 190/1/6 194/1/6
f 191/1/6 192/1/6 195/1/6
f 195/1/6 192/1/6 196/1/6
f 197/1/6 198/1/6 201/1/6
f 201/1/6 198/1/6 202/1/6
f 199/1/6 200/1/6 203/1/6
f 203/1/6 200/1/6 204/1/6
f 205/1/6 206/1/6 207/1/6
f 207/1/6 206/1/6 208/1/6
